<svg width="15" height="16" viewBox="0 0 15 16" fill="none" xmlns="http://www.w3.org/2000/svg">
<path fill-rule="evenodd" clip-rule="evenodd" d="M4.375 0.877258C4.49932 0.877258 4.61855 0.93076 4.70646 1.02599C4.79436 1.12123 4.84375 1.25039 4.84375 1.38507V1.90169C5.2575 1.89288 5.71312 1.89288 6.21437 1.89288H8.785C9.28687 1.89288 9.7425 1.89288 10.1562 1.90169V1.38507C10.1562 1.25039 10.2056 1.12123 10.2935 1.02599C10.3814 0.93076 10.5007 0.877258 10.625 0.877258C10.7493 0.877258 10.8685 0.93076 10.9565 1.02599C11.0444 1.12123 11.0937 1.25039 11.0937 1.38507V1.94502C11.2562 1.95856 11.41 1.97549 11.5556 1.99648C12.2881 2.10346 12.8812 2.32825 13.3494 2.83471C13.8169 3.34184 14.0244 3.98439 14.1231 4.77794C14.2187 5.54981 14.2187 6.53497 14.2187 7.77945V9.20944C14.2187 10.4539 14.2187 11.4398 14.1231 12.211C14.0244 13.0045 13.8169 13.647 13.3494 14.1542C12.8812 14.6606 12.2881 14.8854 11.5556 14.9924C10.8431 15.096 9.93375 15.096 8.785 15.096H6.215C5.06625 15.096 4.15625 15.096 3.44437 14.9924C2.71187 14.8854 2.11875 14.6606 1.65062 14.1542C1.18312 13.647 0.975625 13.0045 0.876875 12.211C0.78125 11.4391 0.78125 10.4539 0.78125 9.20944V7.77945C0.78125 6.53497 0.78125 5.54913 0.876875 4.77794C0.975625 3.98439 1.18312 3.34184 1.65062 2.83471C2.11875 2.32825 2.71187 2.10346 3.44437 1.99648C3.59 1.97549 3.74437 1.95856 3.90625 1.94502V1.38507C3.90625 1.25039 3.95564 1.12123 4.04354 1.02599C4.13145 0.93076 4.25068 0.877258 4.375 0.877258ZM3.56875 3.0033C2.94062 3.09471 2.57812 3.26669 2.31375 3.55309C2.04937 3.8395 1.89062 4.23221 1.80625 4.91335C1.79188 5.02846 1.78 5.15033 1.77 5.2783H13.23C13.22 5.14965 13.2081 5.02846 13.1937 4.91267C13.1094 4.23221 12.9506 3.8395 12.6862 3.55309C12.4219 3.26669 12.0594 3.09471 11.4306 3.0033C10.7887 2.90986 9.94187 2.90851 8.75 2.90851H6.25C5.05812 2.90851 4.21187 2.90986 3.56875 3.0033ZM1.71875 7.81736C1.71875 7.23913 1.71875 6.73606 1.72687 6.29392H13.2731C13.2812 6.73606 13.2812 7.23913 13.2812 7.81736V9.17153C13.2812 10.4627 13.28 11.3802 13.1937 12.0762C13.1094 12.7567 12.9506 13.1494 12.6862 13.4358C12.4219 13.7222 12.0594 13.8942 11.4306 13.9856C10.7887 14.079 9.94187 14.0804 8.75 14.0804H6.25C5.05812 14.0804 4.21187 14.079 3.56875 13.9856C2.94062 13.8942 2.57812 13.7222 2.31375 13.4358C2.04937 13.1494 1.89062 12.7567 1.80625 12.0755C1.72 11.3802 1.71875 10.4627 1.71875 9.17153V7.81736Z" fill="white"/>
</svg>
