<svg width="26" height="26" viewBox="0 0 26 26" fill="none" xmlns="http://www.w3.org/2000/svg">
<path d="M2.16671 5.70918L3.55337 4.33334L21.6667 22.4467L20.2909 23.8333L16.9542 20.4967C15.7084 20.9083 14.3867 21.125 13 21.125C7.58337 21.125 2.95754 17.7558 1.08337 13C1.83087 11.0933 3.02254 9.41418 4.53921 8.08168L2.16671 5.70918ZM13 9.75001C13.862 9.75001 14.6886 10.0924 15.2981 10.7019C15.9076 11.3114 16.25 12.1381 16.25 13C16.2506 13.369 16.1883 13.7353 16.0659 14.0833L11.9167 9.93418C12.2647 9.81174 12.6311 9.74946 13 9.75001ZM13 4.87501C18.4167 4.87501 23.0425 8.24418 24.9167 13C24.032 15.2457 22.5297 17.195 20.5834 18.6225L19.045 17.0733C20.5432 16.0371 21.7515 14.6349 22.555 13C21.6793 11.2124 20.3196 9.70628 18.6305 8.65298C16.9414 7.59968 14.9907 7.04142 13 7.04168C11.8192 7.04168 10.66 7.23668 9.57671 7.58334L7.90837 5.92584C9.46837 5.25418 11.1909 4.87501 13 4.87501ZM3.44504 13C4.32075 14.7877 5.68045 16.2937 7.36956 17.347C9.05867 18.4003 11.0094 18.9586 13 18.9583C13.7475 18.9583 14.4842 18.8825 15.1667 18.7308L12.6967 16.25C11.9429 16.1692 11.2394 15.8328 10.7033 15.2967C10.1673 14.7606 9.83084 14.0572 9.75004 13.3033L6.06671 9.60918C4.99421 10.53 4.09504 11.6783 3.44504 13Z" fill="#CC6237"/>
</svg>
