<svg width="27" height="27" viewBox="0 0 27 27" fill="none" xmlns="http://www.w3.org/2000/svg">
<path d="M25.8674 13.1709C25.8319 13.0907 24.9716 11.1823 23.0592 9.26992C20.511 6.72172 17.2925 5.375 13.75 5.375C10.2075 5.375 6.98897 6.72172 4.44077 9.26992C2.52835 11.1823 1.66405 13.0938 1.63257 13.1709C1.58637 13.2748 1.5625 13.3873 1.5625 13.501C1.5625 13.6147 1.58637 13.7272 1.63257 13.8311C1.66812 13.9113 2.52835 15.8187 4.44077 17.7311C6.98897 20.2783 10.2075 21.625 13.75 21.625C17.2925 21.625 20.511 20.2783 23.0592 17.7311C24.9716 15.8187 25.8319 13.9113 25.8674 13.8311C25.9136 13.7272 25.9375 13.6147 25.9375 13.501C25.9375 13.3873 25.9136 13.2748 25.8674 13.1709ZM13.75 20C10.6239 20 7.89288 18.8635 5.6321 16.623C4.70447 15.7005 3.91527 14.6486 3.28905 13.5C3.91511 12.3513 4.70432 11.2993 5.6321 10.377C7.89288 8.13648 10.6239 7 13.75 7C16.8761 7 19.6071 8.13648 21.8679 10.377C22.7973 11.2991 23.5882 12.351 24.216 13.5C23.4837 14.867 20.2937 20 13.75 20ZM13.75 8.625C12.7858 8.625 11.8433 8.91091 11.0416 9.44659C10.2399 9.98226 9.61506 10.7436 9.24608 11.6344C8.8771 12.5252 8.78056 13.5054 8.96866 14.4511C9.15676 15.3967 9.62106 16.2654 10.3028 16.9471C10.9846 17.6289 11.8533 18.0932 12.7989 18.2813C13.7446 18.4694 14.7248 18.3729 15.6156 18.0039C16.5064 17.6349 17.2677 17.0101 17.8034 16.2084C18.3391 15.4067 18.625 14.4642 18.625 13.5C18.6236 12.2075 18.1096 10.9683 17.1957 10.0543C16.2817 9.14039 15.0425 8.62634 13.75 8.625ZM13.75 16.75C13.1072 16.75 12.4788 16.5594 11.9444 16.2023C11.4099 15.8452 10.9934 15.3376 10.7474 14.7437C10.5014 14.1499 10.437 13.4964 10.5624 12.866C10.6878 12.2355 10.9974 11.6564 11.4519 11.2019C11.9064 10.7474 12.4855 10.4378 13.1159 10.3124C13.7464 10.187 14.3999 10.2514 14.9937 10.4974C15.5876 10.7434 16.0952 11.1599 16.4523 11.6944C16.8094 12.2289 17 12.8572 17 13.5C17 14.362 16.6576 15.1886 16.0481 15.7981C15.4386 16.4076 14.6119 16.75 13.75 16.75Z" fill="#CC6237"/>
</svg>
