<svg width="16" height="16" viewBox="0 0 16 16" fill="none" xmlns="http://www.w3.org/2000/svg">
<path fill-rule="evenodd" clip-rule="evenodd" d="M9.58998 10.2973C8.69141 11.0153 7.55206 11.3619 6.4059 11.266C5.25975 11.1702 4.19381 10.6391 3.42701 9.78181C2.66021 8.92456 2.25076 7.80624 2.28275 6.65653C2.31474 5.50682 2.78574 4.413 3.59903 3.59971C4.41231 2.78643 5.50613 2.31543 6.65584 2.28344C7.80555 2.25144 8.92388 2.6609 9.78112 3.4277C10.6384 4.1945 11.1695 5.26044 11.2653 6.40659C11.3612 7.55274 11.0146 8.6921 10.2966 9.59066L13.734 13.0273C13.7831 13.0731 13.8225 13.1283 13.8498 13.1896C13.8772 13.251 13.8919 13.3172 13.893 13.3843C13.8942 13.4514 13.8819 13.5181 13.8567 13.5804C13.8316 13.6427 13.7941 13.6992 13.7467 13.7467C13.6992 13.7942 13.6426 13.8316 13.5804 13.8567C13.5181 13.8819 13.4514 13.8942 13.3843 13.8931C13.3172 13.8919 13.251 13.8772 13.1896 13.8498C13.1283 13.8225 13.0731 13.7831 13.0273 13.734L9.58998 10.2973ZM4.30598 9.256C3.81667 8.76664 3.48341 8.14321 3.34832 7.46451C3.21323 6.78581 3.28236 6.08229 3.54699 5.44286C3.81161 4.80344 4.25985 4.25681 4.83505 3.87206C5.41026 3.48732 6.08661 3.28172 6.77862 3.28125C7.47064 3.28079 8.14727 3.48547 8.72299 3.86945C9.29871 4.25342 9.74768 4.79944 10.0132 5.43851C10.2787 6.07758 10.3487 6.781 10.2146 7.45989C10.0804 8.13878 9.74796 8.76265 9.25931 9.25266L9.25598 9.256L9.25264 9.25866C8.59604 9.91374 7.70626 10.2814 6.77876 10.2809C5.85125 10.2804 4.96188 9.91179 4.30598 9.256Z" fill="black" fill-opacity="0.2"/>
</svg>
